<svg xmlns="http://www.w3.org/2000/svg" fill="none" viewBox="0 0 20 20"><path fill="#1C1F23" stroke="#1C1F23" stroke-width="0.083" d="m10.16 8.256.028.028.03-.026 2.354-2.078.022-.02-.01-.026-.289-.722a4.5 4.5 0 0 1-.32-1.541l4.381 4.382a4.5 4.5 0 0 1-1.54-.32l-.722-.289-.027-.01-.02.021-2.077 2.355-.026.03.028.027.78.78.032.032.03-.034 1.59-1.802a5.7 5.7 0 0 0 2.695.366.83.83 0 0 0 .75-.638 1.06 1.06 0 0 0-.3-1.001l-5.092-5.092a1.06 1.06 0 0 0-1-.299.83.83 0 0 0-.639.75 5.7 5.7 0 0 0 .366 2.696l-1.802 1.59-.033.029.031.031zm-3.522.417.106.004-.075-.075L5.638 7.57l-.015-.015-.022.004a5.2 5.2 0 0 0-1.547.521c-.43.225-.642.624-.661 1.051s.153.88.492 1.219l2.427 2.427-.57.57.03.03-.03-.03-.002.002-.006.007-.025.025-.094.096a28 28 0 0 0-1.306 1.438c-.34.409-.667.836-.874 1.196-.103.18-.178.345-.21.485-.031.138-.022.263.06.346.083.082.208.091.346.06.14-.032.305-.107.485-.21.36-.207.787-.533 1.196-.874a25 25 0 0 0 1.534-1.4l.026-.025.006-.006.002-.002-.03-.03.03.03.57-.57 2.428 2.427c.338.34.792.512 1.218.492.427-.02.827-.232 1.052-.66.259-.496.431-1.017.521-1.548l.004-.021-.016-.016-1.031-1.031-.075-.075.004.106a4.04 4.04 0 0 1-.47 2.054.1.1 0 0 1-.042.007.47.47 0 0 1-.327-.146L4.723 9.512a.47.47 0 0 1-.146-.327.1.1 0 0 1 .007-.043l.02-.012a4.05 4.05 0 0 1 2.034-.457ZM4.055 3.23a.593.593 0 0 0-.838.838L15.93 16.78a.593.593 0 0 0 .838-.838z"></path></svg>