<svg xmlns="http://www.w3.org/2000/svg" width="1em" height="1em" fill="none" viewBox="0 0 24 24"><path fill="currentColor" d="M9.828 17.846a.55.55 0 0 1-.393-.141.55.55 0 0 1-.156-.386l-.222-7.65a.48.48 0 0 1 .14-.379.53.53 0 0 1 .393-.148q.246 0 .393.148a.5.5 0 0 1 .163.37l.223 7.652q0 .237-.148.386a.53.53 0 0 1-.393.148m2.172 0a.57.57 0 0 1-.4-.141.52.52 0 0 1-.149-.386V9.67q0-.238.149-.379a.56.56 0 0 1 .4-.148q.252 0 .4.148.156.141.156.378v7.651a.5.5 0 0 1-.156.386.56.56 0 0 1-.4.14m2.18 0a.54.54 0 0 1-.4-.148.5.5 0 0 1-.141-.386l.222-7.644a.52.52 0 0 1 .156-.378.53.53 0 0 1 .393-.148q.252 0 .393.148.147.141.14.378l-.215 7.651a.53.53 0 0 1-.163.386.54.54 0 0 1-.385.14M8.545 6.977V5.405q0-.875.534-1.364.54-.49 1.505-.49h2.825q.963 0 1.497.49.541.49.541 1.364v1.572h-1.512V5.472a.52.52 0 0 0-.178-.415.64.64 0 0 0-.46-.163h-2.602a.66.66 0 0 0-.467.163.54.54 0 0 0-.17.415v1.505zm-3.218.971a.72.72 0 0 1-.518-.207.7.7 0 0 1-.215-.52q0-.304.215-.51a.72.72 0 0 1 .518-.209H18.68q.304 0 .512.208a.67.67 0 0 1 .215.512q0 .31-.208.519a.7.7 0 0 1-.52.207zm3.263 12.5q-.897 0-1.431-.497-.534-.496-.571-1.393L6.084 7.8h1.49L8.07 18.26a.8.8 0 0 0 .2.526q.192.2.497.2h6.457a.64.64 0 0 0 .497-.2q.192-.192.207-.526L16.411 7.8h1.513l-.504 10.75q-.037.904-.579 1.401-.534.497-1.423.497z"></path></svg>