<svg height="100%" stroke-miterlimit="10" style="fill-rule:nonzero;clip-rule:evenodd;stroke-linecap:round;stroke-linejoin:round;" version="1.1" viewBox="0 0 172.291 43.4238" width="100%" xml:space="preserve" xmlns="http://www.w3.org/2000/svg" xmlns:xlink="http://www.w3.org/1999/xlink">
<defs>
<clipPath id="TextBounds">
<rect height="41.327" width="166.121" x="2.86358" y="1.00126"/>
</clipPath>
</defs>
<g id="图层-1">
<g fill="#4f4f4f" opacity="1" stroke="none">
<path clip-path="url(#TextBounds)" d="M12.4319 11.9563L12.4319 19.3392L23.6995 19.3392L23.6995 11.9563C23.6995 10.9017 23.9368 10.1106 24.4114 9.58329C24.886 9.05595 25.5101 8.79228 26.2835 8.79228C27.0687 8.79228 27.7044 9.05302 28.1907 9.5745C28.6771 10.096 28.9202 10.8899 28.9202 11.9563L28.9202 32.2591C28.9202 33.3255 28.6741 34.1224 28.1819 34.6497C27.6897 35.177 27.0569 35.4407 26.2835 35.4407C25.4983 35.4407 24.8714 35.1741 24.4026 34.6409C23.9339 34.1077 23.6995 33.3138 23.6995 32.2591L23.6995 23.5931L12.4319 23.5931L12.4319 32.2591C12.4319 33.3255 12.1858 34.1224 11.6937 34.6497C11.2015 35.177 10.5687 35.4407 9.79522 35.4407C9.01006 35.4407 8.38311 35.1741 7.91436 34.6409C7.44561 34.1077 7.21123 33.3138 7.21123 32.2591L7.21123 11.9563C7.21123 10.9017 7.44268 10.1106 7.90557 9.58329C8.36846 9.05595 8.99834 8.79228 9.79522 8.79228C10.5804 8.79228 11.2161 9.05302 11.7024 9.5745C12.1888 10.096 12.4319 10.8899 12.4319 11.9563Z" fill-rule="evenodd"/>
<path clip-path="url(#TextBounds)" d="M38.9925 18.6536L38.9925 32.5227C38.9925 33.4837 38.764 34.2102 38.3069 34.7024C37.8499 35.1946 37.2698 35.4407 36.5667 35.4407C35.8636 35.4407 35.2923 35.1888 34.8528 34.6849C34.4134 34.1809 34.1937 33.4602 34.1937 32.5227L34.1937 18.7942C34.1937 17.845 34.4134 17.1302 34.8528 16.6497C35.2923 16.1692 35.8636 15.929 36.5667 15.929C37.2698 15.929 37.8499 16.1692 38.3069 16.6497C38.764 17.1302 38.9925 17.7981 38.9925 18.6536ZM36.6194 13.6966C35.9515 13.6966 35.3802 13.4915 34.9056 13.0813C34.431 12.6712 34.1937 12.0911 34.1937 11.3411C34.1937 10.6614 34.4368 10.1018 34.9231 9.6624C35.4095 9.22294 35.9749 9.00322 36.6194 9.00322C37.2405 9.00322 37.7913 9.20243 38.2718 9.60087C38.7522 9.99931 38.9925 10.5794 38.9925 11.3411C38.9925 12.0794 38.7581 12.6565 38.2894 13.0726C37.8206 13.4886 37.264 13.6966 36.6194 13.6966Z" fill-rule="evenodd"/>
<path clip-path="url(#TextBounds)" d="M47.3421 18.9173L51.2269 29.8157L55.4105 18.4427C55.7386 17.5286 56.0608 16.8811 56.3772 16.5003C56.6937 16.1194 57.1741 15.929 57.8187 15.929C58.428 15.929 58.9466 16.1341 59.3743 16.5442C59.8021 16.9544 60.0159 17.429 60.0159 17.9681C60.0159 18.179 59.9778 18.4251 59.9017 18.7063C59.8255 18.9876 59.7376 19.2513 59.638 19.4974C59.5384 19.7434 59.4241 20.0247 59.2952 20.3411L54.6897 31.7669C54.5608 32.095 54.3938 32.511 54.1888 33.0149C53.9837 33.5188 53.7552 33.9495 53.5032 34.3069C53.2513 34.6643 52.9407 34.9427 52.5716 35.1419C52.2024 35.3411 51.7542 35.4407 51.2269 35.4407C50.5472 35.4407 50.0052 35.2854 49.6009 34.9749C49.1966 34.6643 48.8978 34.3245 48.7044 33.9554C48.511 33.5862 48.1858 32.8567 47.7288 31.7669L43.1585 20.4642C43.053 20.1829 42.9446 19.9017 42.8333 19.6204C42.722 19.3392 42.6282 19.052 42.5521 18.7591C42.4759 18.4661 42.4378 18.2142 42.4378 18.0032C42.4378 17.6751 42.5374 17.3499 42.7366 17.0276C42.9358 16.7054 43.2112 16.4417 43.5628 16.2366C43.9144 16.0315 44.2952 15.929 44.7054 15.929C45.5022 15.929 46.0501 16.1575 46.3489 16.6145C46.6478 17.0716 46.9788 17.8392 47.3421 18.9173Z" fill-rule="evenodd"/>
<path clip-path="url(#TextBounds)" d="M76.3812 26.8626L66.9944 26.8626C67.0062 27.9524 67.2259 28.9134 67.6536 29.7454C68.0813 30.5774 68.6497 31.2044 69.3587 31.6263C70.0677 32.0481 70.8499 32.2591 71.7054 32.2591C72.2796 32.2591 72.804 32.1917 73.2786 32.0569C73.7532 31.9222 74.2132 31.7112 74.6585 31.4241C75.1038 31.137 75.514 30.8294 75.889 30.5013C76.264 30.1731 76.7503 29.7278 77.348 29.1653C77.594 28.9544 77.9456 28.8489 78.4026 28.8489C78.8948 28.8489 79.2933 28.9837 79.598 29.2532C79.9026 29.5227 80.055 29.9036 80.055 30.3958C80.055 30.8294 79.8851 31.3362 79.5452 31.9163C79.2054 32.4964 78.6927 33.053 78.0071 33.5862C77.3216 34.1194 76.4603 34.5618 75.4231 34.9134C74.386 35.2649 73.1937 35.4407 71.846 35.4407C68.764 35.4407 66.3675 34.5618 64.6565 32.804C62.9456 31.0462 62.0901 28.6614 62.0901 25.6497C62.0901 24.2317 62.3011 22.9163 62.723 21.7034C63.1448 20.4905 63.7601 19.4505 64.5687 18.5833C65.3772 17.7161 66.3733 17.0511 67.5569 16.5882C68.7405 16.1253 70.053 15.8938 71.4944 15.8938C73.3694 15.8938 74.9778 16.2893 76.3196 17.0804C77.6614 17.8714 78.6663 18.8938 79.3343 20.1477C80.0022 21.4017 80.3362 22.679 80.3362 23.9798C80.3362 25.1868 79.9905 25.969 79.2991 26.3265C78.6077 26.6839 77.6351 26.8626 76.3812 26.8626ZM66.9944 24.138L75.6956 24.138C75.5784 22.4974 75.136 21.2698 74.3685 20.4554C73.6009 19.6409 72.5901 19.2337 71.3362 19.2337C70.1409 19.2337 69.1595 19.6468 68.3919 20.4729C67.6243 21.2991 67.1585 22.5208 66.9944 24.138Z" fill-rule="evenodd"/>
<path clip-path="url(#TextBounds)" d="M106.668 26.8626C106.668 27.6829 106.466 28.5706 106.062 29.5257C105.658 30.4808 105.022 31.4183 104.155 32.3382C103.287 33.2581 102.18 34.0052 100.832 34.5794C99.4847 35.1536 97.9144 35.4407 96.1214 35.4407C94.762 35.4407 93.5257 35.3118 92.4124 35.054C91.2991 34.7962 90.2884 34.3948 89.3802 33.8499C88.472 33.305 87.637 32.5872 86.8753 31.6966C86.1956 30.888 85.6155 29.9827 85.1351 28.9808C84.6546 27.9788 84.2942 26.9095 84.054 25.7727C83.8138 24.636 83.6937 23.429 83.6937 22.1517C83.6937 20.0774 83.9954 18.22 84.5989 16.5794C85.2024 14.9388 86.0667 13.5354 87.1917 12.3694C88.3167 11.2034 89.6351 10.3157 91.1468 9.70634C92.6585 9.09697 94.2698 8.79228 95.9808 8.79228C98.0667 8.79228 99.9241 9.20829 101.553 10.0403C103.182 10.8724 104.43 11.9007 105.297 13.1253C106.164 14.3499 106.598 15.5071 106.598 16.597C106.598 17.1946 106.387 17.722 105.965 18.179C105.543 18.636 105.033 18.8645 104.436 18.8645C103.768 18.8645 103.267 18.7063 102.933 18.3899C102.599 18.0735 102.227 17.5286 101.817 16.7552C101.137 15.4778 100.337 14.5227 99.4173 13.8899C98.4974 13.2571 97.3636 12.9407 96.0159 12.9407C93.8714 12.9407 92.1634 13.7552 90.8919 15.3841C89.6204 17.013 88.9847 19.3274 88.9847 22.3274C88.9847 24.3313 89.2659 25.9983 89.8284 27.3284C90.3909 28.6585 91.1878 29.6517 92.219 30.3079C93.2503 30.9642 94.4573 31.2923 95.8401 31.2923C97.3401 31.2923 98.6087 30.9202 99.6458 30.1761C100.683 29.4319 101.465 28.3392 101.992 26.8977C102.215 26.2181 102.491 25.6643 102.819 25.2366C103.147 24.8089 103.674 24.595 104.401 24.595C105.022 24.595 105.555 24.8118 106 25.2454C106.446 25.679 106.668 26.2181 106.668 26.8626Z" fill-rule="evenodd"/>
<path clip-path="url(#TextBounds)" d="M115.721 11.7102L115.721 18.8294C116.33 18.1263 116.925 17.5696 117.505 17.1595C118.085 16.7493 118.727 16.4417 119.43 16.2366C120.133 16.0315 120.889 15.929 121.698 15.929C122.916 15.929 123.997 16.1868 124.941 16.7024C125.884 17.2181 126.625 17.9681 127.164 18.9524C127.504 19.5267 127.733 20.1683 127.85 20.8772C127.967 21.5862 128.026 22.4036 128.026 23.3294L128.026 32.5227C128.026 33.4837 127.806 34.2102 127.367 34.7024C126.927 35.1946 126.344 35.4407 125.617 35.4407C124.035 35.4407 123.244 34.4681 123.244 32.5227L123.244 24.4192C123.244 22.8841 123.016 21.7034 122.559 20.8772C122.102 20.0511 121.235 19.638 119.957 19.638C119.102 19.638 118.331 19.8811 117.646 20.3675C116.96 20.8538 116.448 21.5188 116.108 22.3626C115.85 23.0774 115.721 24.3489 115.721 26.177L115.721 32.5227C115.721 33.472 115.507 34.1956 115.079 34.6936C114.652 35.1917 114.057 35.4407 113.295 35.4407C111.713 35.4407 110.922 34.4681 110.922 32.5227L110.922 11.7102C110.922 10.7376 111.13 10.0081 111.546 9.52177C111.962 9.03544 112.545 8.79228 113.295 8.79228C114.057 8.79228 114.652 9.03837 115.079 9.53056C115.507 10.0227 115.721 10.7493 115.721 11.7102Z" fill-rule="evenodd"/>
<path clip-path="url(#TextBounds)" d="M144.901 32.7337C143.741 33.636 142.618 34.3128 141.534 34.764C140.45 35.2151 139.235 35.4407 137.887 35.4407C136.657 35.4407 135.575 35.1976 134.644 34.7112C133.712 34.2249 132.994 33.5657 132.491 32.7337C131.987 31.9017 131.735 30.9993 131.735 30.0267C131.735 28.7142 132.151 27.595 132.983 26.6692C133.815 25.7434 134.957 25.1224 136.41 24.8059C136.715 24.7356 137.471 24.5774 138.678 24.3313C139.885 24.0852 140.919 23.8597 141.781 23.6546C142.642 23.4495 143.576 23.2005 144.584 22.9075C144.526 21.6419 144.271 20.7132 143.82 20.1214C143.368 19.5296 142.434 19.2337 141.016 19.2337C139.797 19.2337 138.88 19.4036 138.265 19.7434C137.65 20.0833 137.122 20.5931 136.683 21.2727C136.243 21.9524 135.933 22.4007 135.751 22.6175C135.57 22.8343 135.18 22.9427 134.582 22.9427C134.043 22.9427 133.577 22.7698 133.185 22.4241C132.792 22.0784 132.596 21.636 132.596 21.097C132.596 20.2532 132.895 19.4329 133.492 18.636C134.09 17.8392 135.022 17.1829 136.287 16.6673C137.553 16.1517 139.129 15.8938 141.016 15.8938C143.125 15.8938 144.783 16.1429 145.991 16.6409C147.198 17.139 148.05 17.927 148.548 19.0052C149.046 20.0833 149.295 21.513 149.295 23.2942C149.295 24.4192 149.292 25.3743 149.286 26.1595C149.281 26.9446 149.272 27.8177 149.26 28.7786C149.26 29.6809 149.409 30.6214 149.708 31.5999C150.007 32.5784 150.157 33.2083 150.157 33.4895C150.157 33.9817 149.925 34.43 149.462 34.8343C148.999 35.2386 148.475 35.4407 147.889 35.4407C147.397 35.4407 146.91 35.2093 146.43 34.7464C145.95 34.2835 145.44 33.6126 144.901 32.7337ZM144.584 25.7903C143.881 26.0481 142.859 26.3206 141.517 26.6077C140.175 26.8948 139.246 27.1058 138.731 27.2405C138.215 27.3753 137.723 27.639 137.254 28.0315C136.785 28.4241 136.551 28.972 136.551 29.6751C136.551 30.4017 136.826 31.0198 137.377 31.5296C137.928 32.0393 138.649 32.2942 139.539 32.2942C140.489 32.2942 141.365 32.0862 142.167 31.6702C142.97 31.2542 143.559 30.7181 143.934 30.0618C144.367 29.3352 144.584 28.1399 144.584 26.4759L144.584 25.7903Z" fill-rule="evenodd"/>
<path clip-path="url(#TextBounds)" d="M153.532 16.3509L154.059 16.3509L154.059 13.4681C154.059 12.6946 154.079 12.0882 154.12 11.6487C154.161 11.2093 154.276 10.8313 154.463 10.5149C154.651 10.1868 154.92 9.92021 155.272 9.71513C155.623 9.51005 156.016 9.40751 156.45 9.40751C157.059 9.40751 157.61 9.63603 158.102 10.0931C158.43 10.3977 158.638 10.7698 158.726 11.2093C158.814 11.6487 158.858 12.2727 158.858 13.0813L158.858 16.3509L160.616 16.3509C161.295 16.3509 161.814 16.512 162.171 16.8343C162.529 17.1565 162.707 17.5696 162.707 18.0735C162.707 18.7181 162.452 19.1692 161.943 19.427C161.433 19.6849 160.703 19.8138 159.754 19.8138L158.858 19.8138L158.858 28.638C158.858 29.388 158.884 29.9651 158.937 30.3694C158.99 30.7737 159.13 31.1018 159.359 31.3538C159.587 31.6058 159.959 31.7317 160.475 31.7317C160.756 31.7317 161.137 31.6819 161.617 31.5823C162.098 31.4827 162.473 31.4329 162.742 31.4329C163.129 31.4329 163.478 31.5882 163.788 31.8987C164.099 32.2093 164.254 32.5931 164.254 33.0501C164.254 33.8235 163.832 34.4153 162.989 34.8255C162.145 35.2356 160.932 35.4407 159.35 35.4407C157.85 35.4407 156.713 35.1888 155.94 34.6849C155.166 34.1809 154.659 33.4837 154.419 32.5931C154.179 31.7024 154.059 30.513 154.059 29.0247L154.059 19.8138L153.426 19.8138C152.735 19.8138 152.207 19.6497 151.844 19.3216C151.481 18.9934 151.299 18.5774 151.299 18.0735C151.299 17.5696 151.49 17.1565 151.87 16.8343C152.251 16.512 152.805 16.3509 153.532 16.3509Z" fill-rule="evenodd"/>
</g>
</g>
</svg>
