<svg xmlns="http://www.w3.org/2000/svg" width="1em" height="1em" fill="none" viewBox="0 0 24 24"><path fill="currentColor" d="M9.587 18.668q-.89 0-1.333-.451-.438-.444-.438-1.374l2.167-1.914q.178-.15.37-.233a1 1 0 0 1 .382-.082q.212 0 .41.082.199.076.383.246l1.053.957 2.646-2.344q.198-.178.41-.26.218-.082.465-.082.231 0 .458.089.225.089.41.26l3.178 2.973v.342q0 .902-.444 1.347t-1.326.444zm2.57-4.963q-.588 0-1.011-.424a1.4 1.4 0 0 1-.418-1.018q0-.582.418-.998.424-.424 1.011-.424.39 0 .711.198.328.191.52.52.19.321.191.704a1.4 1.4 0 0 1-.417 1.018 1.36 1.36 0 0 1-1.005.424m-7.923 1.422L3.1 8.694q-.2-1.107.28-1.784.485-.684 1.6-.882l9.187-1.62q1.114-.191 1.798.287.684.472.882 1.573l.396 2.262h-1.538l-.328-1.839q-.083-.465-.362-.649-.274-.185-.711-.11L5.376 7.506q-.444.075-.643.349-.191.265-.109.738l1.08 6.118q.09.458.362.65.274.184.711.109l1.135-.205v1.545l-.998.177q-1.12.191-1.805-.28-.675-.478-.875-1.579m5.08 4.156q-1.135 0-1.73-.588-.588-.58-.588-1.709v-6.528q0-1.128.588-1.709.595-.588 1.73-.588h9.324q1.134 0 1.722.588.595.588.595 1.709v6.528q0 1.128-.595 1.71-.588.587-1.722.587zm.13-1.524h9.064q.444 0 .683-.233.247-.225.247-.697v-6.214q0-.471-.247-.704-.24-.232-.683-.232H9.443q-.45 0-.69.232-.232.233-.232.704v6.214q0 .472.232.697.24.233.69.233"></path></svg>