<svg xmlns="http://www.w3.org/2000/svg" width="1em" height="1em" fill="none" viewBox="0 0 24 24"><path fill="currentColor" d="M8.273 21.07q-.468 0-.734-.304-.258-.305-.258-.828v-1.922H6.86q-1.132 0-1.945-.438a3.02 3.02 0 0 1-1.242-1.25q-.43-.82-.43-1.984V8.28q0-1.164.43-1.976.429-.82 1.242-1.258.82-.438 2-.438h10.164q1.172 0 1.992.438.82.437 1.25 1.258.43.812.43 1.976v6.063q0 1.164-.43 1.984a2.95 2.95 0 0 1-1.25 1.25q-.82.438-1.992.438H12.25l-2.672 2.367a4.3 4.3 0 0 1-.687.515 1.2 1.2 0 0 1-.618.172m.383-1.726 2.477-2.453q.25-.25.46-.328a1.6 1.6 0 0 1 .579-.086h4.86q1.109 0 1.64-.547.54-.555.539-1.64V8.327q0-1.078-.54-1.625-.53-.555-1.64-.555H6.953q-1.101 0-1.64.555-.532.547-.532 1.625v5.961q0 1.085.532 1.64.539.548 1.64.548h1.07q.33 0 .477.148.156.141.156.492zm-.437-6.867q-.485 0-.828-.344a1.13 1.13 0 0 1-.336-.82q0-.478.336-.82.343-.345.828-.345t.82.344q.336.345.336.82 0 .478-.336.82-.336.345-.82.345m3.781 0q-.485 0-.828-.344a1.12 1.12 0 0 1-.344-.82q0-.478.344-.82.343-.345.828-.345.477 0 .82.344.345.345.344.82 0 .478-.344.82a1.12 1.12 0 0 1-.82.345m3.773 0a1.12 1.12 0 0 1-.82-.344 1.13 1.13 0 0 1-.336-.82q0-.478.336-.82.345-.345.82-.345.485 0 .82.344.345.345.345.82 0 .478-.344.82-.337.345-.82.345"></path></svg>