<svg xmlns="http://www.w3.org/2000/svg" width="1em" height="1em" fill="none" viewBox="0 0 24 24"><path stroke="currentColor" stroke-width="1.2" d="m3.766 12.129-.012-.002h-.011c-.063-.007-.09-.024-.111-.044A.1.1 0 0 1 3.6 12c0-.045.009-.059.027-.078l.01-.01c.02-.022.044-.041.114-.048h.008q1.797-.195 3.056-.474c.857-.19 1.592-.456 2.186-.815a4.26 4.26 0 0 0 1.478-1.478c.363-.603.64-1.348.842-2.218q.295-1.276.538-3.114a.3.3 0 0 1 .067-.142c.02-.016.036-.023.074-.023.042 0 .058.008.08.028s.046.051.06.126q.242 1.836.54 3.115v.004c.21.87.489 1.613.851 2.215q.556.925 1.467 1.477l.003.002c.598.357 1.332.624 2.184.813q1.267.278 3.052.483l.013.001c.07.007.094.026.113.048l.01.01c.018.02.027.033.027.078 0 .024-.002.042-.037.078-.021.023-.048.042-.115.048l-.01.001q-1.795.205-3.05.483c-.854.183-1.59.45-2.19.815a4.26 4.26 0 0 0-1.477 1.478c-.362.601-.642 1.345-.85 2.214l-.001.004q-.298 1.282-.53 3.118c-.015.085-.042.116-.06.133-.022.02-.038.028-.08.028-.03 0-.044-.005-.07-.028l-.403.445.403-.445a.24.24 0 0 1-.072-.139 36 36 0 0 0-.458-2.648q-.239-1.142-.617-1.99a4.6 4.6 0 0 0-.985-1.465c-.4-.4-.89-.72-1.455-.963q-.837-.367-1.97-.597a36 36 0 0 0-2.607-.441Z"></path></svg>