<svg xmlns="http://www.w3.org/2000/svg" fill="none" viewBox="0 0 20 20"><g clip-path="url(#pinned-conversation_svg__a)"><path fill="#000" fill-opacity="0.2" fill-rule="evenodd" d="M11.053 15.856s.01-.005.025-.033c-.014.028-.025.033-.025.033m.119-9.29a5.4 5.4 0 0 1-.353-2.553c.077-.736.956-.925 1.48-.402l4.807 4.807c.523.524.334 1.403-.402 1.48a5.4 5.4 0 0 1-2.552-.352l-2.056 2.33c.63 1.444.63 3.041-.096 4.429-.41.783-1.456.775-2.08.15l-2.272-2.271-.565.565s-2.829 2.829-3.386 2.272 2.272-3.386 2.272-3.386l.565-.566-2.271-2.271c-.625-.625-.633-1.67.15-2.08 1.387-.726 2.985-.726 4.428-.096z" clip-rule="evenodd"></path></g><defs><clipPath id="pinned-conversation_svg__a"><path fill="#fff" d="M0 .5h20v20H0z"></path></clipPath></defs></svg>