<svg xmlns="http://www.w3.org/2000/svg" fill="none" viewBox="0 0 24 24"><path fill="#000" fill-rule="evenodd" d="M13.167 8.393a5.6 5.6 0 0 1-.368-2.664c.08-.768.998-.965 1.544-.419l5.017 5.017c.546.546.349 1.463-.42 1.544a5.6 5.6 0 0 1-2.662-.367l-2.147 2.432c.657 1.506.657 3.174-.1 4.622-.428.817-1.519.808-2.17.156l-2.42-2.42-.591.59s-3.26 3.26-3.791 2.729 2.728-3.791 2.728-3.791l.59-.59-2.42-2.422c-.653-.652-.661-1.743.156-2.17 1.448-.758 3.116-.758 4.622-.1zm-2.233 3.418L14.46 8.7l-.284-.71a4.5 4.5 0 0 1-.322-1.636l4.461 4.462a4.5 4.5 0 0 1-1.634-.321l-.71-.284-3.11 3.524.277.634c.538 1.234.523 2.555-.068 3.685-.015.029-.026.034-.026.034a.14.14 0 0 1-.062.014.5.5 0 0 1-.353-.156l-5.904-5.904a.5.5 0 0 1-.156-.353.14.14 0 0 1 .014-.062s.005-.011.034-.027c1.13-.59 2.451-.605 3.685-.067z" clip-rule="evenodd"></path></svg>